<svg version="1.1" xmlns="http://www.w3.org/2000/svg" xmlns:xlink="http://www.w3.org/1999/xlink" width="315.81654" height="315.81654" viewBox="0,0,315.81654,315.81654"><g transform="translate(-83.09173,-34.09173)"><g data-paper-data="{&quot;isPaintingLayer&quot;:true}" fill-rule="nonzero" stroke-linejoin="miter" stroke-miterlimit="10" stroke-dasharray="" stroke-dashoffset="0" style="mix-blend-mode: normal"><path d="M83.34173,349.65827v-315.31654h315.31654v315.31654z" fill="#3ba4f3" stroke="#3ba4f3" stroke-width="0.5" stroke-linecap="butt"/><path d="M92.00767,292.50222l304.73346,-117.34424l0.2512,87.97942l-81.24352,34.35009z" fill="#148ef9" stroke="#148ef9" stroke-width="3" stroke-linecap="butt"/><path d="M397.20547,257.86798l-8.77412,9.0997l-17.3096,-0.46444l26.00703,-26.64831z" fill="#1070c4" stroke="#1070c4" stroke-width="3" stroke-linecap="round"/><path d="M323.20547,158.86798l64.34905,108.0997l-19.43277,-0.46444l-68.02825,-106.64831z" fill="#964646" stroke="#964646" stroke-width="3" stroke-linecap="round"/><path d="M90.00767,292.50222l91.72358,-222.34424l213.26108,2.97942l-79.9123,224.35009z" fill="#f6f7f8" stroke="#f6f7f8" stroke-width="3" stroke-linecap="butt"/><g fill="none" stroke-linecap="round"><g stroke="#031627" stroke-width="9"><path d="M250.75482,83.64324l-88.20214,197.39605"/><path d="M322.41162,84.24996l-88.20218,197.39604"/><path d="M363.05212,145.79301l-204.8441,-5.76347" data-paper-data="{&quot;index&quot;:null}"/><path d="M335.79199,213.82852l-204.84411,-5.76341" data-paper-data="{&quot;index&quot;:null}"/></g><g stroke="#ed3c64" stroke-width="25"><path d="M297.5118,270.60958l-56.48247,-112.41054"/><path d="M185.17618,270.89796l161.42248,-109.00054"/></g><path d="M274.10225,145.16581c-21.99218,45.68121 -63.2805,54.02127 -80.39074,46.60491c-23.25341,-9.34437 -30.31445,-33.42437 -16.87215,-64.61138c5.84636,-13.56402 26.64145,-40.60349 65.13252,-38.19668c44.32461,2.77158 42.04045,35.61836 32.13038,56.20314z" stroke="#55c4b6" stroke-width="25"/></g></g></g></svg>